<?xml version="1.0"?>
<!DOCTYPE svg PUBLIC "-//W3C//DTD SVG 1.1//EN"
"http://www.w3.org/Graphics/SVG/1.1/DTD/svg11.dtd">
<svg version="1.1" xmlns="http://www.w3.org/2000/svg"
xmlns:xlink="http://www.w3.org/1999/xlink"
width="800px" height="800px"
viewBox="0 0 20 20"
preserveAspectRatio="xMidYMid">

<defs>
<g id="first">
<g>
<animateTransform attributeName = "transform" type = "rotate"
 from = "0,3,3" to = "360,3,3" dur = "5s" repeatCount="indefinite" />

<polygon points="4.141267819554184,3.3708203932499368 3.7053423027509678,3.970820393249937 3,4.2 2.2946576972490322,3.970820393249937 1.858732180445816,3.3708203932499368 1.8587321804458157,2.6291796067500632 2.2946576972490322,
2.029179606750063 3,1.8 3.7053423027509673,2.0291796067500627 4.141267819554184,2.629179606750063" />
</g>

<g>
<animateTransform attributeName = "transform" type = "rotate"
 from = "0,8,4" to = "360,8,4" dur = "5s" repeatCount="indefinite" />

<polygon points="9.141267819554184,4.370820393249937 8.705342302750967,4.970820393249937 8,5.2 7.294657697249033,4.970820393249937 6.858732180445816,4.370820393249937 6.8587321804458155,3.6291796067500632 7.294657697249032,
3.029179606750063 8,2.8 8.705342302750967,3.0291796067500627 9.141267819554184,3.629179606750063" />
</g>
<line x1="8" y1="4" x2="3" y2="3" stroke="red" stroke-width="0.3" />
<polygon points="5.5,3.5 6.5,7 4.5, 7" fill="purple" />
</g>

<g id="second">
<g>
<animateTransform attributeName = "transform" type = "rotate"
 from = "0,3,3" to = "360,3,3" dur = "5s" repeatCount="indefinite" />

<polygon points="4.141267819554184,3.3708203932499368 3.7053423027509678,3.970820393249937 3,4.2 2.2946576972490322,3.970820393249937 1.858732180445816,3.3708203932499368 1.8587321804458157,2.6291796067500632 2.2946576972490322,
2.029179606750063 3,1.8 3.7053423027509673,2.0291796067500627 4.141267819554184,2.629179606750063" />
</g>

<g>
<animateTransform attributeName = "transform" type = "rotate"
 from = "0,8,4" to = "360,8,4" dur = "5s" repeatCount="indefinite" />

<polygon points="9.141267819554184,4.370820393249937 8.705342302750967,4.970820393249937 8,5.2 7.294657697249033,4.970820393249937 6.858732180445816,4.370820393249937 6.8587321804458155,3.6291796067500632 7.294657697249032,
3.029179606750063 8,2.8 8.705342302750967,3.0291796067500627 9.141267819554184,3.629179606750063" />
</g>
<line x1="8" y1="4" x2="3" y2="3" stroke="red" stroke-width="0.3" />
<polygon points="5.5,3.5 6.5,7 4.5, 7" fill="blue" />
</g>

<g id="third">
<g>
<animateTransform attributeName = "transform" type = "rotate"
 from = "0,3,3" to = "360,3,3" dur = "5s" repeatCount="indefinite" />

<polygon points="4.141267819554184,3.3708203932499368 3.7053423027509678,3.970820393249937 3,4.2 2.2946576972490322,3.970820393249937 1.858732180445816,3.3708203932499368 1.8587321804458157,2.6291796067500632 2.2946576972490322,
2.029179606750063 3,1.8 3.7053423027509673,2.0291796067500627 4.141267819554184,2.629179606750063" />
</g>

<g>
<animateTransform attributeName = "transform" type = "rotate"
 from = "0,8,4" to = "360,8,4" dur = "5s" repeatCount="indefinite" />

<polygon points="9.141267819554184,4.370820393249937 8.705342302750967,4.970820393249937 8,5.2 7.294657697249033,4.970820393249937 6.858732180445816,4.370820393249937 6.8587321804458155,3.6291796067500632 7.294657697249032,
3.029179606750063 8,2.8 8.705342302750967,3.0291796067500627 9.141267819554184,3.629179606750063" />
</g>
<line x1="8" y1="4" x2="3" y2="3" stroke="red" stroke-width="0.3" />
<polygon points="5.5,3.5 6.5,7 4.5, 7" fill="green" />
</g>

</defs>


<use xlink:href = "#first" transform = "scale(1.2,1.2) translate(-1,0)" />
<use xlink:href = "#second"	transform = "translate(4,3.5) scale(1.5,1.5)" />
<use xlink:href = "#third" transform = "scale(0.9,0.9) translate(13,0)" />

</svg>
